<svg width="55" height="55" viewBox="0 0 55 55" fill="none" xmlns="http://www.w3.org/2000/svg">
<path d="M37.8321 13.6754L37.8167 13.66L37.8007 13.6453C37.2862 13.1737 36.6601 12.9425 36.025 12.9425C35.4152 12.9425 34.752 13.1595 34.2584 13.6899L31.5229 16.4254L30.8158 17.1325L31.5229 17.8396L37.1604 23.4771L37.8675 24.1842L38.5746 23.4771L41.3105 20.7412C42.365 19.7593 42.3372 18.1454 41.3177 17.161L37.8321 13.6754ZM31.3146 18.0204L30.6075 17.3133L29.9004 18.0204L13.2354 34.6854L12.9425 34.9783V35.3925V41.0575V42.0575H13.9425H19.6075H20.0217L20.3146 41.7646L36.9796 25.0996L37.6867 24.3925L36.9796 23.6854L31.3146 18.0204ZM1 27.5C1 12.8448 12.8448 1 27.5 1C42.1552 1 54 12.8448 54 27.5C54 42.1552 42.1552 54 27.5 54C12.8448 54 1 42.1552 1 27.5Z" fill="white" stroke="#A1F7B9" stroke-width="2"/>
</svg>
