<svg width="220" height="220" viewBox="0 0 220 220" fill="none" xmlns="http://www.w3.org/2000/svg">
<path fill-rule="evenodd" clip-rule="evenodd" d="M110 30C96.0076 29.9974 82.2593 33.6649 70.1272 40.6363C57.9951 47.6077 47.9037 57.6392 40.8602 69.7295C33.8167 81.8199 30.0675 95.5462 29.9868 109.538C29.906 123.531 33.4966 137.299 40.4001 149.47C45.0662 143.406 51.0644 138.496 57.9309 135.12C64.7975 131.744 72.3484 129.992 80 130H140C147.652 129.992 155.203 131.744 162.069 135.12C168.936 138.496 174.934 143.406 179.6 149.47C186.503 137.299 190.094 123.531 190.013 109.538C189.933 95.5462 186.183 81.8199 179.14 69.7295C172.096 57.6392 162.005 47.6077 149.873 40.6363C137.741 33.6649 123.992 29.9974 110 30ZM189.43 170.76C190.683 169.127 191.883 167.453 193.03 165.74C204.116 149.267 210.026 129.856 210 110C210 54.77 165.23 10 110 10C54.7701 10 10.0001 54.77 10.0001 110C9.96859 131.968 17.2005 153.329 30.5701 170.76L30.5201 170.94L34.0701 175.07C43.4489 186.035 55.0939 194.836 68.2024 200.866C81.3108 206.897 95.571 210.013 110 210C112.16 210 114.307 209.933 116.44 209.8C134.484 208.662 151.877 202.629 166.75 192.35C173.863 187.443 180.31 181.634 185.93 175.07L189.48 170.94L189.43 170.76ZM110 50C102.044 50 94.4129 53.1607 88.7868 58.7868C83.1607 64.4129 80 72.0435 80 80C80 87.9565 83.1607 95.5871 88.7868 101.213C94.4129 106.839 102.044 110 110 110C117.956 110 125.587 106.839 131.213 101.213C136.839 95.5871 140 87.9565 140 80C140 72.0435 136.839 64.4129 131.213 58.7868C125.587 53.1607 117.956 50 110 50Z" fill="#BFBABA"/>
</svg>
